name rise44.8762peak52.3436fall86.788.mot
datacolumns 19
datarows 12
range 4.85498500000000 4.87331500000000
endheader
time	ground_force1_vx	ground_force1_vy	ground_force1_vz	ground_force1_px	ground_force1_py	ground_force1_pz	ground_force2_vx	ground_force2_vy	ground_force2_vz	ground_force2_px	ground_force2_py	ground_force2_pz	ground_torque1_x	ground_torque1_y	ground_torque1_z	ground_torque2_x	ground_torque2_y	ground_torque2_z	
4.85498500000000	-6.19953700000000	709.47954400000003	48.68455400000000	0.11994000000000	0.00000000000000	0.14753000000000	0.00000000000000	0.00000000000000	0.00000000000000	0.00000000000000	0.00000000000000	0.00000000000000	0.00000000000000	12.12041700000000	0.00000000000000	0.00000000000000	0.00000000000000	0.00000000000000	
4.85664200000000	-6.79924000000000	711.03000299999997	48.79418900000000	0.11876200000000	0.00000000000000	0.14761500000000	0.00000000000000	0.00000000000000	0.00000000000000	0.00000000000000	0.00000000000000	0.00000000000000	0.00000000000000	12.22191200000000	0.00000000000000	0.00000000000000	0.00000000000000	0.00000000000000	
4.85831100000000	-7.41382100000000	712.59783000000004	48.90105100000000	0.11756900000000	0.00000000000000	0.14769800000000	0.00000000000000	0.00000000000000	0.00000000000000	0.00000000000000	0.00000000000000	0.00000000000000	0.00000000000000	12.32657500000000	0.00000000000000	0.00000000000000	0.00000000000000	0.00000000000000	
4.85998300000000	-8.04303300000000	714.18213400000002	49.00508200000000	0.11636200000000	0.00000000000000	0.14778100000000	0.00000000000000	0.00000000000000	0.00000000000000	0.00000000000000	0.00000000000000	0.00000000000000	0.00000000000000	12.43441700000000	0.00000000000000	0.00000000000000	0.00000000000000	0.00000000000000	
4.86164900000000	-8.68658300000000	715.78209200000003	49.10624700000000	0.11514200000000	0.00000000000000	0.14786300000000	0.00000000000000	0.00000000000000	0.00000000000000	0.00000000000000	0.00000000000000	0.00000000000000	0.00000000000000	12.54544400000000	0.00000000000000	0.00000000000000	0.00000000000000	0.00000000000000	
4.86332400000000	-9.34412800000000	717.39694999999995	49.20453000000000	0.11391300000000	0.00000000000000	0.14794400000000	0.00000000000000	0.00000000000000	0.00000000000000	0.00000000000000	0.00000000000000	0.00000000000000	0.00000000000000	12.65965300000000	0.00000000000000	0.00000000000000	0.00000000000000	0.00000000000000	
4.86497900000000	-10.01527900000000	719.02601800000002	49.29993700000000	0.11267400000000	0.00000000000000	0.14802400000000	0.00000000000000	0.00000000000000	0.00000000000000	0.00000000000000	0.00000000000000	0.00000000000000	0.00000000000000	12.77703800000000	0.00000000000000	0.00000000000000	0.00000000000000	0.00000000000000	
4.86664500000000	-10.69960400000000	720.66866800000003	49.39249300000000	0.11142800000000	0.00000000000000	0.14810300000000	0.00000000000000	0.00000000000000	0.00000000000000	0.00000000000000	0.00000000000000	0.00000000000000	0.00000000000000	12.89758400000000	0.00000000000000	0.00000000000000	0.00000000000000	0.00000000000000	
4.86830900000000	-11.39662700000000	722.32433000000003	49.48224700000000	0.11017600000000	0.00000000000000	0.14818100000000	0.00000000000000	0.00000000000000	0.00000000000000	0.00000000000000	0.00000000000000	0.00000000000000	0.00000000000000	13.02126900000000	0.00000000000000	0.00000000000000	0.00000000000000	0.00000000000000	
4.86998100000000	-12.10583300000000	723.99248999999998	49.56926400000000	0.10892100000000	0.00000000000000	0.14825800000000	0.00000000000000	0.00000000000000	0.00000000000000	0.00000000000000	0.00000000000000	0.00000000000000	0.00000000000000	13.14806400000000	0.00000000000000	0.00000000000000	0.00000000000000	0.00000000000000	
4.87165100000000	-12.82666600000000	725.67268200000001	49.65363000000000	0.10766400000000	0.00000000000000	0.14833400000000	0.00000000000000	0.00000000000000	0.00000000000000	0.00000000000000	0.00000000000000	0.00000000000000	0.00000000000000	13.27792900000000	0.00000000000000	0.00000000000000	0.00000000000000	0.00000000000000	
4.87331500000000	-13.55853800000000	727.36448900000005	49.73544800000000	0.10640600000000	0.00000000000000	0.14840900000000	0.00000000000000	0.00000000000000	0.00000000000000	0.00000000000000	0.00000000000000	0.00000000000000	0.00000000000000	13.41081800000000	0.00000000000000	0.00000000000000	0.00000000000000	0.00000000000000	
